<svg preserveAspectRatio="none" width="100%" height="100%" overflow="visible" style="display: block;" viewBox="0 0 16 16" fill="none" xmlns="http://www.w3.org/2000/svg">
<path id="Vector" opacity="0.8" d="M9.54021 9.54021C8.27945 10.84 8.18847 12.4517 8.08448 16C11.3859 16 13.6734 16 14.8432 14.8432C15.987 13.6604 16 11.2819 16 8.08448C12.4517 8.20146 10.84 8.27945 9.54021 9.54021ZM0 8.08448C0 11.2819 -7.74715e-07 13.6734 1.15678 14.8432C2.33956 15.987 4.61413 16 7.91552 16C7.79854 12.4517 7.72055 10.84 6.45979 9.54021C5.16003 8.27945 3.54833 8.18846 0 8.08448ZM7.91552 0C4.61413 0 2.33956 0 1.15678 1.15678C0.0129968 2.33956 0 4.71812 0 7.91552C3.54833 7.79854 5.16003 7.72055 6.45979 6.45979C7.72055 5.16003 7.81153 3.54833 7.91552 0ZM9.54021 6.45979C8.29244 5.16003 8.20146 3.54833 8.08448 0C11.3859 0 13.6734 0 14.8432 1.15678C15.987 2.33956 16 4.71812 16 7.91552C12.4517 7.79854 10.84 7.72055 9.54021 6.45979Z" fill="var(--fill-0, #C6C6C6)"/>
</svg>
