<svg preserveAspectRatio="none" width="100%" height="100%" overflow="visible" style="display: block;" viewBox="0 0 23.0131 23" fill="none" xmlns="http://www.w3.org/2000/svg">
<path id="Vector" opacity="0.8" d="M13.7219 13.7141C11.9085 15.5825 11.7776 17.8993 11.6281 23C16.3765 23 19.6667 23 21.3493 21.3371C22.9944 19.6369 23.0131 16.2177 23.0131 11.6214C17.9095 11.7896 15.5913 11.9017 13.7219 13.7141ZM0 11.6214C0 16.2177 -1.11429e-06 19.6556 1.66382 21.3371C3.36503 22.9813 6.63659 23 11.385 23C11.2168 17.8993 11.1046 15.5825 9.29123 13.7141C7.42177 11.9017 5.10363 11.7709 0 11.6214ZM11.385 0C6.63659 0 3.36503 0 1.66382 1.66288C0.0186935 3.36312 0 6.78229 0 11.3786C5.10363 11.2104 7.42177 11.0983 9.29123 9.28595C11.1046 7.41755 11.2355 5.10073 11.385 0ZM13.7219 9.28595C11.9272 7.41755 11.7963 5.10073 11.6281 0C16.3765 0 19.6667 0 21.3493 1.66288C22.9944 3.36312 23.0131 6.78229 23.0131 11.3786C17.9095 11.2104 15.5913 11.0983 13.7219 9.28595Z" fill="var(--fill-0, black)"/>
</svg>
