<svg preserveAspectRatio="none" width="100%" height="100%" overflow="visible" style="display: block;" viewBox="0 0 14.6039 14.6894" fill="none" xmlns="http://www.w3.org/2000/svg">
<g id="Group">
<path id="Vector" d="M5.84501 11.7446C2.61939 11.7446 0 9.11043 0 5.86656C0 2.6227 2.61939 0 5.84501 0C9.07063 0 11.69 2.6342 11.69 5.87807C11.69 9.12193 9.07063 11.7561 5.84501 11.7561V11.7446ZM5.84501 1.46089C3.43151 1.46089 1.46411 3.43942 1.46411 5.86656C1.46411 8.29371 3.43151 10.2722 5.84501 10.2722C8.25851 10.2722 10.2259 8.29371 10.2259 5.86656C10.2259 3.43942 8.25851 1.46089 5.84501 1.46089Z" fill="var(--fill-0, #C6C6C6)"/>
<path id="Vector_2" d="M13.8747 14.6894C13.6917 14.6894 13.4973 14.6204 13.36 14.4709L8.97912 10.0652C8.69317 9.77761 8.69317 9.31749 8.97912 9.02991C9.26508 8.74233 9.72262 8.74233 10.0086 9.02991L14.3895 13.4356C14.6754 13.7232 14.6754 14.1833 14.3895 14.4709C14.2522 14.6089 14.0578 14.6894 13.8747 14.6894Z" fill="var(--fill-0, #C6C6C6)"/>
</g>
</svg>
