<svg preserveAspectRatio="none" width="100%" height="100%" overflow="visible" style="display: block;" viewBox="0 0 34.5257 20.1227" fill="none" xmlns="http://www.w3.org/2000/svg">
<path id="Vector" opacity="0.8" fill-rule="evenodd" clip-rule="evenodd" d="M33.7251 1.36393C33.9681 0.579204 33.7251 0 32.5847 0H28.8084C27.855 0 27.4063 0.504468 27.1633 1.0463C27.1633 1.0463 25.2377 5.64257 22.527 8.63201C21.6484 9.49147 21.2558 9.77173 20.7697 9.77173C20.5267 9.77173 20.1715 9.49147 20.1715 8.70674V1.36393C20.1715 0.429732 19.9098 0 19.1059 0H13.1797C12.5815 0 12.2263 0.429732 12.2263 0.859464C12.2263 1.7563 13.591 1.96182 13.7219 4.46547V9.9212C13.7219 11.117 13.4975 11.3412 13.0302 11.3412C11.7589 11.3412 8.63692 6.72624 6.78615 1.43867C6.43095 0.411048 6.05706 0 5.10363 0H1.28993C0.205641 0 0 0.504468 0 1.0463C0 2.03656 1.27123 6.89439 5.96359 13.3404C9.08559 17.7311 13.4788 20.1227 17.4795 20.1227C19.8724 20.1227 20.1715 19.5995 20.1715 18.684V15.3582C20.1715 14.2933 20.3958 14.0877 21.1623 14.0877C21.7232 14.0877 22.6766 14.368 24.9199 16.4793C27.4811 19.0016 27.9111 20.1227 29.3506 20.1227H33.1269C34.2112 20.1227 34.7533 19.5995 34.4355 18.5532C34.099 17.5069 32.8652 15.9935 31.2574 14.1998C30.3788 13.1722 29.0515 12.0699 28.6589 11.528C28.098 10.818 28.2663 10.5004 28.6589 9.88383C28.6589 9.88383 33.2577 3.51259 33.7438 1.36393H33.7251Z" fill="var(--fill-0, black)"/>
</svg>
