<svg preserveAspectRatio="none" width="100%" height="100%" overflow="visible" style="display: block;" viewBox="0 0 15.7392 15" fill="none" xmlns="http://www.w3.org/2000/svg">
<g id="Group">
<path id="Vector" d="M13.2571 15H7.45782C6.08522 15 4.97569 13.8727 4.97569 12.5038V10.8359C4.97569 10.3758 5.34172 10.0077 5.79926 10.0077C6.25679 10.0077 6.62282 10.3758 6.62282 10.8359V12.5038C6.62282 12.964 6.98885 13.3321 7.44638 13.3321H13.2456C13.7032 13.3321 14.0692 12.9525 14.0692 12.5038V2.49617C14.0692 2.03604 13.7032 1.66794 13.2456 1.66794H7.44638C6.98885 1.66794 6.62282 2.04755 6.62282 2.49617V4.16411C6.62282 4.62423 6.25679 4.99233 5.79926 4.99233C5.34172 4.99233 4.97569 4.62423 4.97569 4.16411V2.49617C4.97569 1.1158 6.09665 0 7.45782 0H13.2571C14.6297 0 15.7392 1.1273 15.7392 2.49617V12.5038C15.7392 13.8842 14.6182 15 13.2571 15Z" fill="var(--fill-0, #C6C6C6)"/>
<path id="Vector_2" d="M11.5985 8.33972H0.823565C0.36603 8.33972 6.55816e-07 7.97163 6.55816e-07 7.5115C6.55816e-07 7.05138 0.36603 6.68328 0.823565 6.68328H9.5968L8.52159 5.60199C8.20132 5.27991 8.20132 4.75077 8.52159 4.42868C8.84187 4.1066 9.36803 4.1066 9.68831 4.42868L12.1704 6.92485C12.4106 7.16641 12.4793 7.52301 12.3534 7.83359C12.2276 8.14417 11.9188 8.35123 11.5871 8.35123L11.5985 8.33972Z" fill="var(--fill-0, #C6C6C6)"/>
<path id="Vector_3" d="M9.11639 10.8359C8.89906 10.8359 8.69317 10.7554 8.53303 10.5943C8.21276 10.2722 8.21276 9.7431 8.53303 9.42101L11.0152 6.92485C11.3354 6.60276 11.8616 6.60276 12.1819 6.92485C12.5021 7.24693 12.5021 7.77607 12.1819 8.09816L9.69974 10.5943C9.53961 10.7554 9.32228 10.8359 9.11639 10.8359Z" fill="var(--fill-0, #C6C6C6)"/>
</g>
</svg>
