<svg preserveAspectRatio="none" width="100%" height="100%" overflow="visible" style="display: block;" viewBox="0 0 22.5168 13.1235" fill="none" xmlns="http://www.w3.org/2000/svg">
<path id="Vector" opacity="0.8" fill-rule="evenodd" clip-rule="evenodd" d="M21.9946 0.889521C22.1531 0.377742 21.9946 0 21.2509 0H18.7881C18.1663 0 17.8737 0.329001 17.7152 0.682372C17.7152 0.682372 16.4594 3.67994 14.6915 5.62957C14.1185 6.19009 13.8625 6.37287 13.5455 6.37287C13.387 6.37287 13.1553 6.19009 13.1553 5.67831V0.889521C13.1553 0.28026 12.9846 0 12.4604 0H8.59547C8.20532 0 7.97367 0.28026 7.97367 0.56052C7.97367 1.14541 8.86369 1.27945 8.94904 2.91227V6.47035C8.94904 7.2502 8.80273 7.39643 8.49793 7.39643C7.66886 7.39643 5.63277 4.38668 4.42575 0.938262C4.1941 0.268075 3.95026 0 3.32846 0H0.841258C0.134114 0 0 0.329001 0 0.682372C0 1.32819 0.829066 4.49634 3.8893 8.70024C5.92538 11.5638 8.79054 13.1235 11.3997 13.1235C12.9603 13.1235 13.1553 12.7823 13.1553 12.1852V10.0162C13.1553 9.32169 13.3016 9.18765 13.8015 9.18765C14.1673 9.18765 14.7891 9.37043 16.2521 10.7474C17.9225 12.3924 18.2029 13.1235 19.1417 13.1235H21.6045C22.3116 13.1235 22.6652 12.7823 22.4579 12.0999C22.2385 11.4175 21.4338 10.4305 20.3853 9.26076C19.8122 8.59058 18.9466 7.87165 18.6906 7.51828C18.3248 7.05524 18.4345 6.84809 18.6906 6.44598C18.6906 6.44598 21.6898 2.29082 22.0068 0.889521H21.9946Z" fill="var(--fill-0, #C6C6C6)"/>
</svg>
