<?xml version="1.0" encoding="utf-8"?>
<!-- Generator: Adobe Illustrator 28.1.0, SVG Export Plug-In . SVG Version: 6.00 Build 0)  -->
<svg version="1.1" id="Layer_1" xmlns="http://www.w3.org/2000/svg" xmlns:xlink="http://www.w3.org/1999/xlink" x="0px" y="0px"
	 viewBox="0 0 512 512" style="enable-background:new 0 0 512 512;" xml:space="preserve">
<style type="text/css">
	.st0{fill:#FFFFFF;}
	.st1{opacity:0.8;clip-path:url(#SVGID_00000160148049048539407740000016070170077459946400_);enable-background:new    ;}
	.st2{opacity:0.65;clip-path:url(#SVGID_00000160148049048539407740000016070170077459946400_);}
	.st3{fill:#5ADC5A;}
</style>
<path class="st0" d="M50,0h412c27.6,0,50,22.4,50,50v412c0,27.6-22.4,50-50,50H50c-27.6,0-50-22.4-50-50V50C0,22.4,22.4,0,50,0z"/>
<g>
	<defs>
		<rect id="SVGID_1_" x="73.5" y="122.3" width="365" height="259"/>
	</defs>
	<clipPath id="SVGID_00000049923539653929062010000000986378671260678276_">
		<use xlink:href="#SVGID_1_"  style="overflow:visible;"/>
	</clipPath>
	
		<path style="opacity:0.8;clip-path:url(#SVGID_00000049923539653929062010000000986378671260678276_);enable-background:new    ;" d="
		M134.9,293.4v87.9H73.5v-259H175c19.4,0,36.7,3.7,51.6,11c15,7.3,26.5,17.7,34.8,31.1c8.2,13.5,12.3,28.7,12.3,45.8
		c0,25.2-8.8,45.4-26.6,60.6c-17.8,15.1-42.2,22.7-73.1,22.7h-39.2L134.9,293.4z M134.9,245.1h40.2c11.9,0,21-3,27.2-9.1
		c6.3-6.1,9.4-14.5,9.4-25.6c0-12.1-3.2-21.8-9.6-29c-6.4-7.2-15.1-10.9-26.2-11h-40.9V245.1z"/>
	<g style="opacity:0.65;clip-path:url(#SVGID_00000049923539653929062010000000986378671260678276_);">
		<path class="st3" d="M348.5,284.7l29.2-162.4h60.8l-54,259h-63.7l-34-147.7l-33.4,147.7h-63.5l-54.2-259h61l29.2,162.4l35-162.4
			h52l35.5,162.4H348.5z"/>
	</g>
</g>
</svg>
