<?xml version="1.0" encoding="utf-8"?>
<!-- Generator: Adobe Illustrator 28.1.0, SVG Export Plug-In . SVG Version: 6.00 Build 0)  -->
<svg version="1.1" id="Layer_1" xmlns="http://www.w3.org/2000/svg" xmlns:xlink="http://www.w3.org/1999/xlink" x="0px" y="0px"
	 viewBox="0 0 192 192" style="enable-background:new 0 0 192 192;" xml:space="preserve">
<style type="text/css">
	.st0{fill:#FFFFFF;}
	.st1{opacity:0.8;clip-path:url(#SVGID_00000092433612676649292780000005396146238883117465_);enable-background:new    ;}
	.st2{opacity:0.65;clip-path:url(#SVGID_00000108290867148253008020000015058249734018617014_);}
	.st3{fill:#5ADC5A;}
</style>
<path class="st0" d="M20,0h152c11,0,20,9,20,20v152c0,11-9,20-20,20H20c-11,0-20-9-20-20V20C0,9,9,0,20,0z"/>
<g>
	<g>
		<defs>
			<rect id="SVGID_1_" x="23.2" y="44" width="146.6" height="104"/>
		</defs>
		<clipPath id="SVGID_00000176755734522677486260000009154569086922156195_">
			<use xlink:href="#SVGID_1_"  style="overflow:visible;"/>
		</clipPath>
		
			<path style="opacity:0.8;clip-path:url(#SVGID_00000176755734522677486260000009154569086922156195_);enable-background:new    ;" d="
			M47.9,112.7V148H23.2V44H64c7.8,0,14.7,1.5,20.7,4.4c6,2.9,10.6,7.1,14,12.5c3.3,5.4,4.9,11.5,4.9,18.4c0,10.1-3.5,18.2-10.7,24.3
			c-7.1,6.1-16.9,9.1-29.4,9.1L47.9,112.7L47.9,112.7z M47.9,93.3H64c4.8,0,8.4-1.2,10.9-3.7c2.5-2.4,3.8-5.8,3.8-10.3
			c0-4.9-1.3-8.8-3.9-11.6c-2.6-2.9-6.1-4.4-10.5-4.4H47.9L47.9,93.3L47.9,93.3z"/>
	</g>
	<g>
		<defs>
			<rect id="SVGID_00000155129629455193102880000014249648871679432601_" x="23.2" y="44" width="146.6" height="104"/>
		</defs>
		<clipPath id="SVGID_00000177462346829753810000000000563931365185608835_">
			<use xlink:href="#SVGID_00000155129629455193102880000014249648871679432601_"  style="overflow:visible;"/>
		</clipPath>
		<g style="opacity:0.65;clip-path:url(#SVGID_00000177462346829753810000000000563931365185608835_);">
			<path class="st3" d="M133.6,109.2L145.4,44h24.4l-21.7,104h-25.6l-13.7-59.3L95.5,148H70L48.2,44h24.5l11.7,65.2L98.5,44h20.9
				L133.6,109.2L133.6,109.2z"/>
		</g>
	</g>
</g>
</svg>
