<?xml version="1.0" encoding="utf-8"?>
<!-- Generator: Adobe Illustrator 28.1.0, SVG Export Plug-In . SVG Version: 6.00 Build 0)  -->
<svg version="1.1" id="Layer_1" xmlns="http://www.w3.org/2000/svg" xmlns:xlink="http://www.w3.org/1999/xlink" x="0px" y="0px"
	 viewBox="0 0 180 180" style="enable-background:new 0 0 180 180;" xml:space="preserve">
<style type="text/css">
	.st0{fill:#FFFFFF;}
	.st1{opacity:0.8;clip-path:url(#SVGID_00000008130139692425854380000018012649231456886150_);enable-background:new    ;}
	.st2{opacity:0.65;clip-path:url(#SVGID_00000124883267239958753250000004340819125444603533_);}
	.st3{fill:#5ADC5A;}
</style>
<path class="st0" d="M20,0h140c11,0,20,9,20,20v140c0,11-9,20-20,20H20c-11,0-20-9-20-20V20C0,9,9,0,20,0z"/>
<g>
	<g>
		<defs>
			<rect id="SVGID_1_" x="21" y="40.7" width="139" height="98.6"/>
		</defs>
		<clipPath id="SVGID_00000024711160302350941260000012706531111157247677_">
			<use xlink:href="#SVGID_1_"  style="overflow:visible;"/>
		</clipPath>
		
			<path style="opacity:0.8;clip-path:url(#SVGID_00000024711160302350941260000012706531111157247677_);enable-background:new    ;" d="
			M44.4,105.8v33.5H21V40.7h38.7c7.4,0,14,1.4,19.7,4.2c5.7,2.8,10.1,6.7,13.3,11.8c3.1,5.1,4.7,10.9,4.7,17.4
			c0,9.6-3.4,17.3-10.1,23.1c-6.8,5.8-16.1,8.6-27.8,8.6L44.4,105.8L44.4,105.8z M44.4,87.4h15.3c4.5,0,8-1.1,10.4-3.5
			c2.4-2.3,3.6-5.5,3.6-9.7c0-4.6-1.2-8.3-3.7-11c-2.4-2.7-5.8-4.2-10-4.2H44.4L44.4,87.4L44.4,87.4z"/>
	</g>
	<g>
		<defs>
			<rect id="SVGID_00000008850384219384724930000006120050092021967759_" x="21" y="40.7" width="139" height="98.6"/>
		</defs>
		<clipPath id="SVGID_00000154410248250083503140000006582873142206451883_">
			<use xlink:href="#SVGID_00000008850384219384724930000006120050092021967759_"  style="overflow:visible;"/>
		</clipPath>
		<g style="opacity:0.65;clip-path:url(#SVGID_00000154410248250083503140000006582873142206451883_);">
			<path class="st3" d="M125.7,102.5l11.1-61.8H160l-20.6,98.6h-24.3l-12.9-56.2l-12.7,56.2H65.3L44.7,40.7h23.2L79,102.5l13.3-61.8
				h19.8L125.7,102.5L125.7,102.5z"/>
		</g>
	</g>
</g>
</svg>
