<?xml version="1.0" encoding="utf-8"?>
<!-- Generator: Adobe Illustrator 28.1.0, SVG Export Plug-In . SVG Version: 6.00 Build 0)  -->
<svg version="1.1" id="Layer_1" xmlns="http://www.w3.org/2000/svg" xmlns:xlink="http://www.w3.org/1999/xlink" x="0px" y="0px"
	 viewBox="0 0 16 16" style="enable-background:new 0 0 16 16;" xml:space="preserve">
<style type="text/css">
	.st0{fill:#FFFFFF;}
	.st1{opacity:0.8;clip-path:url(#SVGID_00000062178836299725500930000004390943553105898395_);enable-background:new    ;}
	.st2{opacity:0.65;clip-path:url(#SVGID_00000008863460353977491440000013711933832890420151_);}
	.st3{fill:#5ADC5A;}
</style>
<path class="st0" d="M2,0h12c1.1,0,2,0.9,2,2v12c0,1.1-0.9,2-2,2H2c-1.1,0-2-0.9-2-2V2C0,0.9,0.9,0,2,0z"/>
<g>
	<g>
		<defs>
			<rect id="SVGID_1_" x="1.8" y="3.6" width="12.4" height="8.8"/>
		</defs>
		<clipPath id="SVGID_00000052098644289852274690000003012883929545924017_">
			<use xlink:href="#SVGID_1_"  style="overflow:visible;"/>
		</clipPath>
		
			<path style="opacity:0.8;clip-path:url(#SVGID_00000052098644289852274690000003012883929545924017_);enable-background:new    ;" d="
			M3.9,9.4v3H1.8V3.6h3.4C5.9,3.6,6.5,3.7,7,4C7.5,4.2,7.9,4.6,8.2,5c0.3,0.5,0.4,1,0.4,1.6c0,0.9-0.3,1.5-0.9,2.1
			C7.1,9.2,6.3,9.4,5.2,9.4L3.9,9.4L3.9,9.4z M3.9,7.8h1.4c0.4,0,0.7-0.1,0.9-0.3C6.4,7.3,6.5,7,6.5,6.6c0-0.4-0.1-0.7-0.3-1
			C6,5.4,5.7,5.2,5.3,5.2H3.9L3.9,7.8L3.9,7.8z"/>
	</g>
	<g>
		<defs>
			<rect id="SVGID_00000085958252787946166930000013494001034198526375_" x="1.8" y="3.6" width="12.4" height="8.8"/>
		</defs>
		<clipPath id="SVGID_00000031916268073433141390000011147969683789884297_">
			<use xlink:href="#SVGID_00000085958252787946166930000013494001034198526375_"  style="overflow:visible;"/>
		</clipPath>
		<g style="opacity:0.65;clip-path:url(#SVGID_00000031916268073433141390000011147969683789884297_);">
			<path class="st3" d="M11.1,9.1l1-5.5h2.1l-1.8,8.8h-2.2L9,7.4l-1.1,5H5.8L3.9,3.6H6l1,5.5l1.2-5.5h1.8L11.1,9.1L11.1,9.1z"/>
		</g>
	</g>
</g>
</svg>
