<?xml version="1.0" encoding="utf-8"?>
<!-- Generator: Adobe Illustrator 28.1.0, SVG Export Plug-In . SVG Version: 6.00 Build 0)  -->
<svg version="1.1" id="Layer_1" xmlns="http://www.w3.org/2000/svg" xmlns:xlink="http://www.w3.org/1999/xlink" x="0px" y="0px"
	 viewBox="0 0 32 32" style="enable-background:new 0 0 32 32;" xml:space="preserve">
<style type="text/css">
	.st0{fill:#FFFFFF;}
	.st1{opacity:0.8;clip-path:url(#SVGID_00000103972015523696116150000003483537629393273261_);enable-background:new    ;}
	.st2{opacity:0.65;clip-path:url(#SVGID_00000062190349388471904260000006370056316815102863_);}
	.st3{fill:#5ADC5A;}
</style>
<rect class="st0" width="32" height="32"/>
<g>
	<g>
		<defs>
			<rect id="SVGID_1_" x="3.5" y="7.2" width="24.9" height="17.7"/>
		</defs>
		<clipPath id="SVGID_00000066490055436055666990000000421279362426799523_">
			<use xlink:href="#SVGID_1_"  style="overflow:visible;"/>
		</clipPath>
		
			<path style="opacity:0.8;clip-path:url(#SVGID_00000066490055436055666990000000421279362426799523_);enable-background:new    ;" d="
			M7.7,18.8v6H3.5V7.2h6.9c1.3,0,2.5,0.3,3.5,0.8c1,0.5,1.8,1.2,2.4,2.1c0.6,0.9,0.8,2,0.8,3.1c0,1.7-0.6,3.1-1.8,4.1
			c-1.2,1-2.9,1.5-5,1.5L7.7,18.8L7.7,18.8z M7.7,15.5h2.7c0.8,0,1.4-0.2,1.9-0.6c0.4-0.4,0.6-1,0.6-1.7c0-0.8-0.2-1.5-0.7-2
			c-0.4-0.5-1-0.7-1.8-0.8H7.7L7.7,15.5L7.7,15.5z"/>
	</g>
	<g>
		<defs>
			<rect id="SVGID_00000178921310854487447690000000644161564701169341_" x="3.5" y="7.2" width="24.9" height="17.7"/>
		</defs>
		<clipPath id="SVGID_00000034065005492812847880000012600469734231038892_">
			<use xlink:href="#SVGID_00000178921310854487447690000000644161564701169341_"  style="overflow:visible;"/>
		</clipPath>
		<g style="opacity:0.65;clip-path:url(#SVGID_00000034065005492812847880000012600469734231038892_);">
			<path class="st3" d="M22.3,18.2l2-11.1h4.2l-3.7,17.7h-4.3l-2.3-10.1l-2.3,10.1h-4.3L7.8,7.2H12l2,11.1l2.4-11.1h3.5L22.3,18.2
				L22.3,18.2z"/>
		</g>
	</g>
</g>
</svg>
