<svg width="24" height="24" viewBox="0 0 24 24" fill="none" xmlns="http://www.w3.org/2000/svg">
<path opacity="0.8" d="M13.5402 13.5402C12.2794 14.84 12.1885 16.4517 12.0845 20C15.3859 20 17.6734 20 18.8432 18.8432C19.987 17.6604 20 15.2819 20 12.0845C16.4517 12.2015 14.84 12.2794 13.5402 13.5402ZM4 12.0845C4 15.2819 4 17.6734 5.15678 18.8432C6.33956 19.987 8.61413 20 11.9155 20C11.7985 16.4517 11.7206 14.84 10.4598 13.5402C9.16003 12.2794 7.54833 12.1885 4 12.0845ZM11.9155 4C8.61413 4 6.33956 4 5.15678 5.15678C4.013 6.33956 4 8.71812 4 11.9155C7.54833 11.7985 9.16003 11.7206 10.4598 10.4598C11.7206 9.16003 11.8115 7.54833 11.9155 4ZM13.5402 10.4598C12.2924 9.16003 12.2015 7.54833 12.0845 4C15.3859 4 17.6734 4 18.8432 5.15678C19.987 6.33956 20 8.71812 20 11.9155C16.4517 11.7985 14.84 11.7206 13.5402 10.4598Z" fill="#C6C6C6"/>
</svg>
